<svg xmlns="http://www.w3.org/2000/svg" viewBox="-16 -16 291 290" role="img" aria-label="Applix">
  <rect x="-16" y="-16" width="291" height="290" rx="56" fill="#101010"/>
  <g fill="#ADA2C4">
    <path d="M212.637 42.568C212.637 53.9524 221.866 63.1812 233.25 63.1812C244.634 63.1812 253.863 53.9524 253.863 42.568C253.863 31.1837 244.634 21.9548 233.25 21.9548C221.866 21.9548 212.637 31.1837 212.637 42.568Z"/>
    <path fill-rule="evenodd" clip-rule="evenodd" d="M212.929 165.907L129.485 21.9548H169.933L253.372 165.907H212.929Z"/>
    <path d="M127.782 144.617C127.782 156.375 137.314 165.907 149.073 165.907C160.831 165.907 170.363 156.375 170.363 144.617C170.363 132.858 160.831 123.326 149.073 123.326C137.314 123.326 127.782 132.858 127.782 144.617Z"/>
    <path fill-rule="evenodd" clip-rule="evenodd" d="M45.2131 236.045L169.313 21.9551H128.865L4.77234 236.045H45.2131Z"/>
  </g>
</svg>
